<?xml version="1.0" encoding="utf-8"?>
<!DOCTYPE svg PUBLIC "-//W3C//DTD SVG 1.1//EN" "http://www.w3.org/Graphics/SVG/1.1/DTD/svg11.dtd">
<svg version="1.1" id="Layer_1" xmlns="http://www.w3.org/2000/svg" xmlns:xlink="http://www.w3.org/1999/xlink" x="0px" y="0px"
	 width="55.001px" height="51.312px" viewBox="277.507 370.382 55.001 51.312"
	 enable-background="new 277.507 370.382 55.001 51.312" xml:space="preserve">
<g>
	<path fill="#FFFFFF" d="M279.251,370.5c-3.463,13.79-0.528,33.977-1.5,50.257c16.522,1.247,38.236,1.247,54.757,0
		c0-16.502,0-33.005,0-49.507C316.223,369.534,296.778,370.976,279.251,370.5z"/>
	<path d="M332.508,371.251c0,16.502,0,33.005,0,49.507c-16.521,1.247-38.235,1.247-54.757,0c0.973-16.28-1.963-36.468,1.5-50.257
		C296.778,370.976,316.223,369.534,332.508,371.251z M282.251,409.506c3.96-2.79,6.978-6.523,12.002-8.251
		c3.831,1.433,8.772,5.714,12.752,4.501c-1.751-1.25-1.927-4.074-3-6.001c4.605-4.646,8.396-10.106,13.501-14.252
		c3.454,4.297,6.813,8.69,10.502,12.752c0-7.751,0-15.502,0-23.253c-15.502,0-31.005,0-46.507,0
		C282,386.254,280.503,399.502,282.251,409.506z"/>
	<path fill="#FFFFFF" d="M281.501,375.001c15.502,0,31.005,0,46.507,0c0,7.751,0,15.502,0,23.253
		c-3.688-4.062-7.048-8.455-10.502-12.752c-5.104,4.146-8.896,9.606-13.501,14.252c1.074,1.927,1.249,4.751,3,6.001
		c-3.979,1.213-8.921-3.069-12.752-4.501c-5.024,1.728-8.042,5.461-12.002,8.251C280.503,399.502,282,386.254,281.501,375.001z
		 M293.503,393.004c4.268-0.274,6.82-4.487,4.5-10.501C286.164,375.313,283.455,393.649,293.503,393.004z"/>
	<path d="M298.003,382.502c2.32,6.014-0.233,10.227-4.5,10.501C283.455,393.649,286.164,375.313,298.003,382.502z"/>
</g>
</svg>
